<svg width="58" height="58" viewBox="0 0 58 58" fill="none" xmlns="http://www.w3.org/2000/svg">
<path d="M57 57.5H57.5V57V29C57.5 13.2599 44.7401 0.5 29 0.5C13.2599 0.5 0.5 13.2599 0.5 29C0.5 44.7401 13.2599 57.5 29 57.5H57Z" fill="#802741" stroke="white"/>
<path d="M17.1914 28.7907C17.3519 28.4089 17.1725 27.9692 16.7907 27.8086C16.4089 27.6481 15.9692 27.8275 15.8086 28.2093L17.1914 28.7907ZM16.5 28.5C15.8086 28.2093 15.8086 28.2093 15.8086 28.2094C15.8085 28.2095 15.8085 28.2096 15.8085 28.2097C15.8083 28.21 15.8082 28.2103 15.808 28.2108C15.8076 28.2117 15.807 28.2131 15.8063 28.2148C15.8048 28.2184 15.8026 28.2235 15.7998 28.2303C15.7941 28.2439 15.7857 28.264 15.7749 28.29C15.7531 28.3421 15.7215 28.4183 15.6814 28.5153C15.6012 28.7093 15.4874 28.9866 15.3524 29.3207C15.0828 29.9885 14.7277 30.8862 14.3877 31.8013C14.0491 32.7126 13.7196 33.6569 13.5056 34.4129C13.3996 34.7873 13.3144 35.1413 13.2746 35.4327C13.255 35.5759 13.2418 35.7355 13.2533 35.8892C13.262 36.0057 13.2943 36.2986 13.5255 36.5301L14.5867 35.4699C14.6797 35.563 14.7178 35.6576 14.7324 35.7024C14.7404 35.7272 14.7444 35.7463 14.7465 35.7577C14.7485 35.7693 14.7491 35.7763 14.7491 35.7775C14.7493 35.779 14.7484 35.768 14.7499 35.7412C14.7514 35.7152 14.7547 35.6804 14.7608 35.6357C14.7864 35.4485 14.8492 35.1737 14.9489 34.8215C15.1462 34.1243 15.4589 33.2249 15.7938 32.3237C16.1272 31.4263 16.4767 30.5427 16.7433 29.8824C16.8765 29.5525 16.9888 29.279 17.0676 29.0882C17.1071 28.9928 17.1381 28.9182 17.1593 28.8675C17.1698 28.8421 17.1779 28.8228 17.1833 28.8098C17.186 28.8034 17.1881 28.7985 17.1894 28.7953C17.1901 28.7937 17.1906 28.7925 17.1909 28.7918C17.1911 28.7914 17.1912 28.7911 17.1913 28.7909C17.1913 28.7908 17.1913 28.7908 17.1914 28.7907C17.1914 28.7907 17.1914 28.7907 16.5 28.5ZM13.5255 36.5301C13.7628 36.7675 14.0668 36.7952 14.1775 36.8026C14.3319 36.813 14.4941 36.7994 14.6419 36.7793C14.9427 36.7384 15.3122 36.6519 15.7067 36.5435C16.5026 36.325 17.5013 35.9892 18.4678 35.6437C19.4379 35.297 20.3907 34.9351 21.1 34.6603C21.4549 34.5228 21.7494 34.4068 21.9554 34.3252C22.0585 34.2843 22.1394 34.2521 22.1947 34.23C22.2224 34.2189 22.2436 34.2104 22.258 34.2046C22.2652 34.2017 22.2707 34.1995 22.2745 34.198C22.2763 34.1972 22.2778 34.1967 22.2787 34.1963C22.2792 34.1961 22.2796 34.1959 22.2799 34.1958C22.28 34.1958 22.2801 34.1957 22.2802 34.1957C22.2803 34.1957 22.2803 34.1956 22 33.5C21.7196 32.8044 21.7196 32.8044 21.7196 32.8044C21.7196 32.8044 21.7195 32.8044 21.7194 32.8045C21.7192 32.8045 21.7189 32.8047 21.7185 32.8048C21.7177 32.8052 21.7164 32.8057 21.7147 32.8064C21.7113 32.8077 21.7061 32.8098 21.6992 32.8126C21.6854 32.8181 21.6648 32.8264 21.6378 32.8372C21.5838 32.8588 21.5043 32.8905 21.4028 32.9307C21.1998 33.0111 20.9088 33.1257 20.558 33.2616C19.8558 33.5337 18.9163 33.8905 17.9629 34.2313C17.0059 34.5733 16.0498 34.8938 15.3095 35.0971C14.9358 35.1997 14.6417 35.2655 14.4398 35.293C14.3913 35.2996 14.3529 35.3033 14.3236 35.305C14.3091 35.3059 14.298 35.3062 14.2899 35.3062C14.2859 35.3062 14.2829 35.3062 14.2808 35.3061C14.2787 35.3061 14.2777 35.306 14.2778 35.306C14.2778 35.306 14.2792 35.3061 14.2817 35.3064C14.2843 35.3067 14.2883 35.3072 14.2937 35.3081C14.304 35.3098 14.3224 35.3134 14.3467 35.321C14.3894 35.3344 14.4889 35.372 14.5867 35.4699L13.5255 36.5301Z" fill="#F6F2F4"/>
<path d="M41 38C42.2631 35.7684 42.8594 32.8238 42.3259 30.3156C41.7924 27.8074 40.3595 25.5811 38.2975 24.0567C36.2355 22.5323 33.6869 21.8152 31.1325 22.0407C28.5781 22.2661 26.1945 23.4186 24.4314 25.2806C22.6682 27.1426 21.6475 29.5854 21.5616 32.1483C21.4757 34.7112 22.3306 37.2169 23.9651 39.1928C25.5996 41.1687 27.9007 42.4781 30.4343 42.8741C32.9678 43.2701 35.5587 42.7252 37.7182 41.3423L37.3466 40.0279C37.3466 40.0279 33.1912 41.8425 31 41.5C28.8088 41.1575 26.4721 39.9972 25.0585 38.2883C23.6449 36.5795 22.9055 34.4124 22.9798 32.1959C23.0541 29.9793 23.9369 27.8666 25.4618 26.2562C26.9866 24.6459 29.0481 23.6492 31.2572 23.4542C33.4664 23.2592 35.6706 23.8794 37.4539 25.1978C39.2373 26.5161 40.4766 28.4415 40.938 30.6108C41.3994 32.78 39.718 36.782 39.5 37C39.282 37.218 41 38 41 38Z" fill="#F6F2F4"/>
<path d="M40.1851 37C40.1851 37 45.4935 42.4971 44.9627 42.9552C44.4318 43.4133 37.5 40.5 37.5 40.5" stroke="#F6F2F4" stroke-width="1.5" stroke-linecap="round"/>
<path d="M35.4769 22.7777C35.2894 21.3278 34.7707 19.9346 33.9571 18.6962C33.1436 17.4577 32.055 16.4041 30.7679 15.6093C29.4809 14.8146 28.0266 14.298 26.5075 14.096C24.9883 13.8941 23.4411 14.0115 21.9747 14.4402C20.5083 14.8688 19.1584 15.5983 18.0198 16.5772C16.8812 17.5561 15.9816 18.7607 15.3843 20.1062C14.7871 21.4518 14.5066 22.9056 14.5627 24.3655C14.6187 25.8254 15.01 27.2559 15.7089 28.5563L17.0557 28C16.4674 26.9054 16.2708 25.5365 16.2236 24.3077C16.1764 23.0789 16.4125 21.8551 16.9152 20.7226C17.4179 19.59 18.1751 18.5761 19.1335 17.7521C20.0918 16.9282 21.2281 16.3142 22.4624 15.9534C23.6967 15.5926 24.999 15.4937 26.2777 15.6637C27.5564 15.8337 28.7804 16.2685 29.8637 16.9375C30.9471 17.6064 31.8633 18.4933 32.5481 19.5357C33.2329 20.5781 33.6696 21.7508 33.8274 22.9712L35.4769 22.7777Z" fill="#F6F2F4"/>
</svg>
