<svg width="47" height="54" viewBox="0 0 47 54" fill="none" xmlns="http://www.w3.org/2000/svg">
<path d="M12 22.5L23.5 33L42 12.5" stroke="#030F99" stroke-width="9" stroke-linecap="round" stroke-linejoin="round"/>
<path d="M45 19L41 23H45V19Z" fill="#030F99"/>
<path d="M41 23L40.6464 22.6464C40.5034 22.7894 40.4607 23.0045 40.5381 23.1913C40.6155 23.3782 40.7978 23.5 41 23.5V23ZM45 19H45.5V17.7929L44.6464 18.6464L45 19ZM45 23V23.5C45.2761 23.5 45.5 23.2761 45.5 23H45ZM41.3536 23.3536L45.3536 19.3536L44.6464 18.6464L40.6464 22.6464L41.3536 23.3536ZM44.5 19V23H45.5V19H44.5ZM45 22.5H41V23.5H45V22.5Z" fill="#030F99"/>
<path d="M34 9.5L22.5 3L3 14.5V39L22.5 50.5L43 39V23" stroke="#030F99" stroke-width="5"/>
</svg>
